<svg xmlns="http://www.w3.org/2000/svg" width="512" height="512" viewBox="0 0 512 512"><rect width="512" height="512" fill="#FFFBEB" rx="0"/><g transform="translate(51.2,122.02666666666667) scale(1.2629333333333335)"><circle cx="50" cy="50" r="36" fill="#FFD60A" stroke="#000" stroke-width="6"/></g><g transform="translate(192.85333333333335,122.02666666666667) scale(1.2629333333333335)"><rect x="16" y="16" width="68" height="68" rx="8" fill="#0353A4" stroke="#000" stroke-width="6" stroke-linejoin="round"/></g><g transform="translate(334.50666666666666,122.02666666666667) scale(1.2629333333333335)"><polygon points="50,14 88,84 12,84" fill="#FF006E" stroke="#000" stroke-width="6" stroke-linejoin="round"/></g><g transform="translate(51.2,263.68) scale(1.2629333333333335)"><polygon points="50,10 90,50 50,90 10,50" fill="#FB5607" stroke="#000" stroke-width="6" stroke-linejoin="round"/></g><g transform="translate(192.85333333333335,263.68) scale(1.2629333333333335)"><polygon points="50,10 61,38 92,40 67,58 76,88 50,71 24,88 33,58 8,40 39,38" fill="#06A77D" stroke="#000" stroke-width="6" stroke-linejoin="round"/></g><g transform="translate(334.50666666666666,263.68) scale(1.2629333333333335)"><path d="M50,86 C20,66 10,46 10,32 A20,20 0 0 1 50,22 A20,20 0 0 1 90,32 C90,46 80,66 50,86 Z" fill="#8338EC" stroke="#000" stroke-width="6" stroke-linejoin="round"/></g></svg>